<svg width="40" height="40" viewBox="0 0 40 40" fill="none" xmlns="http://www.w3.org/2000/svg">
<path fill-rule="evenodd" clip-rule="evenodd" d="M4.11501 16.615C4.23112 16.4986 4.36906 16.4062 4.52092 16.3432C4.67279 16.2802 4.83559 16.2477 5.00001 16.2477C5.16443 16.2477 5.32723 16.2802 5.47909 16.3432C5.63095 16.4062 5.76889 16.4986 5.88501 16.615L20 30.7325L34.115 16.615C34.3497 16.3803 34.6681 16.2484 35 16.2484C35.3319 16.2484 35.6503 16.3803 35.885 16.615C36.1197 16.8497 36.2516 17.168 36.2516 17.5C36.2516 17.8319 36.1197 18.1503 35.885 18.385L20.885 33.385C20.7689 33.5014 20.631 33.5937 20.4791 33.6568C20.3272 33.7198 20.1644 33.7522 20 33.7522C19.8356 33.7522 19.6728 33.7198 19.5209 33.6568C19.3691 33.5937 19.2311 33.5014 19.115 33.385L4.11501 18.385C3.9986 18.2689 3.90624 18.1309 3.84323 17.9791C3.78021 17.8272 3.74777 17.6644 3.74777 17.5C3.74777 17.3356 3.78021 17.1728 3.84323 17.0209C3.90624 16.869 3.9986 16.7311 4.11501 16.615Z" fill="#23648C"/>
<path fill-rule="evenodd" clip-rule="evenodd" d="M4.11501 6.61498C4.23112 6.49857 4.36906 6.40621 4.52092 6.34319C4.67279 6.28018 4.83559 6.24774 5.00001 6.24774C5.16443 6.24774 5.32723 6.28018 5.47909 6.34319C5.63095 6.40621 5.76889 6.49857 5.88501 6.61498L20 20.7325L34.115 6.61498C34.2312 6.49876 34.3692 6.40657 34.521 6.34367C34.6729 6.28077 34.8356 6.2484 35 6.2484C35.1644 6.2484 35.3271 6.28077 35.479 6.34367C35.6308 6.40657 35.7688 6.49876 35.885 6.61498C36.0012 6.7312 36.0934 6.86917 36.1563 7.02102C36.2192 7.17287 36.2516 7.33562 36.2516 7.49998C36.2516 7.66434 36.2192 7.82709 36.1563 7.97893C36.0934 8.13078 36.0012 8.26876 35.885 8.38498L20.885 23.385C20.7689 23.5014 20.631 23.5937 20.4791 23.6567C20.3272 23.7198 20.1644 23.7522 20 23.7522C19.8356 23.7522 19.6728 23.7198 19.5209 23.6567C19.3691 23.5937 19.2311 23.5014 19.115 23.385L4.11501 8.38498C3.9986 8.26886 3.90624 8.13092 3.84323 7.97906C3.78021 7.8272 3.74777 7.66439 3.74777 7.49998C3.74777 7.33556 3.78021 7.17275 3.84323 7.02089C3.90624 6.86903 3.9986 6.73109 4.11501 6.61498Z" fill="#23648C"/>
</svg>
