<svg width="32" height="32" viewBox="0 0 32 32" fill="none" xmlns="http://www.w3.org/2000/svg">
<path d="M7.70062 11.2067V11.2067H1.4286C0.9959 11.2064 0.64501 11.5641 0.644723 12.0055V12.0055V31.2003C0.644436 31.6417 0.995039 31.9997 1.42765 32V32H7.69966C8.13236 32.0003 8.48325 31.6426 8.48354 31.2011V31.2011V12.0065C8.48383 11.565 8.13323 11.207 7.70062 11.2067ZM6.91578 30.4005H2.21249V12.8062H6.91578V30.4005ZM24.1612 11.2067C22.4604 11.2068 20.8072 11.7795 19.4579 12.8359V12.0065C19.4582 11.565 19.1076 11.207 18.675 11.2067V11.2067H12.403C11.9702 11.2064 11.6194 11.5641 11.6191 12.0055V12.0055V31.2003C11.6188 31.6417 11.9694 31.9997 12.4021 32V32H18.674C19.1067 32.0003 19.4576 31.6426 19.4579 31.2011V31.2011V22.4031C19.4579 21.078 20.5108 20.0039 21.8095 20.0039C23.1083 20.0039 24.1612 21.078 24.1612 22.4031V31.2003C24.1609 31.6417 24.5115 31.9997 24.9442 32V32H31.2161C31.6488 32.0003 31.9997 31.6426 32 31.2011V31.2011V19.2041C31.9949 14.7895 28.4883 11.2119 24.1612 11.2067ZM30.4322 30.4005H25.7289V22.4031C25.7289 20.1946 23.9742 18.4044 21.8095 18.4044C19.6449 18.4044 17.8901 20.1946 17.8901 22.4031V30.4005H13.1868V12.8062H17.8901V14.7306C17.8901 15.0704 18.1008 15.3731 18.4154 15.485C18.7291 15.6004 19.0801 15.4978 19.2865 15.2304C21.4227 12.4684 25.349 11.9962 28.0562 14.1757C29.5641 15.3898 30.4406 17.2443 30.4322 19.2041V30.4005ZM5.14104 0.0132865C4.95665 0.000107126 4.77159 -0.000868966 4.5871 0.0103578C2.22091 -0.15453 0.171734 1.66881 0.0101153 4.08287C0.00360849 4.18 0.000355131 4.27724 0.000163707 4.37457C-0.020218 6.76813 1.86514 8.72531 4.21123 8.7461C4.30702 8.74698 4.40271 8.74444 4.4983 8.73868H4.5427C6.90439 8.90728 8.9528 7.09068 9.11805 4.68121C9.28331 2.27174 7.50273 0.181884 5.14104 0.0132865ZM5.08688 7.14379C4.90584 7.16078 4.72345 7.15931 4.5427 7.1392H4.4983C2.99934 7.25674 1.69089 6.11239 1.57568 4.5831C1.46047 3.0539 2.58213 1.71889 4.0811 1.60135C4.2497 1.58817 4.41907 1.591 4.5871 1.60984C6.08491 1.46907 7.41106 2.5937 7.54914 4.12182C7.68712 5.65004 6.58479 7.00302 5.08688 7.14379Z" fill="none"/>
</svg>
